<svg width="512" height="512" viewBox="0 0 512 512" fill="none" xmlns="http://www.w3.org/2000/svg">
<g clip-path="url(#clip0_311_2)">
<rect width="512" height="512" fill="white"/>
<path d="M71.9787 45.9926H85.1475V224.37H119.865V45.9926H133.034V465H119.865V275.848H85.1475V465H71.9787V45.9926ZM180.822 465C174.837 465 169.449 461.808 164.661 455.423C159.872 449.038 156.081 440.259 153.288 429.085C150.494 417.912 149.098 405.142 149.098 390.776V325.53H162.266V370.424C162.266 377.607 162.865 384.391 164.062 390.776C165.658 396.762 167.654 401.55 170.048 405.142C172.841 408.733 176.433 410.529 180.822 410.529C185.212 410.529 188.604 408.733 190.998 405.142C193.792 401.55 195.787 396.762 196.984 390.776C198.58 384.391 199.378 377.607 199.378 370.424V319.545C199.378 313.16 198.979 307.772 198.181 303.383C197.383 298.993 195.787 295.003 193.393 291.411C191.397 287.82 188.404 284.029 184.414 280.038L171.245 268.067C163.264 260.884 157.478 252.703 153.886 243.525C150.694 234.346 149.098 220.779 149.098 202.821V120.217C149.098 105.851 150.494 93.0811 153.288 81.9076C156.081 70.734 159.872 61.9548 164.661 55.57C169.449 49.1851 174.837 45.9926 180.822 45.9926C186.808 45.9926 192.195 49.1851 196.984 55.57C201.773 61.9548 205.564 70.734 208.357 81.9076C211.151 93.0811 212.547 105.851 212.547 120.217V183.666H199.378V140.569C199.378 133.386 198.58 126.801 196.984 120.815C195.787 114.431 193.792 109.442 190.998 105.851C188.604 102.259 185.212 100.464 180.822 100.464C176.433 100.464 172.841 102.259 170.048 105.851C167.654 109.442 165.658 114.431 164.062 120.815C162.865 126.801 162.266 133.386 162.266 140.569V181.871C162.266 188.256 162.665 193.643 163.464 198.032C164.262 202.422 165.658 206.413 167.654 210.004C170.048 213.596 173.24 217.387 177.231 221.377L190.4 233.349C198.381 240.532 203.968 248.712 207.16 257.891C210.752 267.069 212.547 280.637 212.547 298.594V390.776C212.547 405.142 211.151 417.912 208.357 429.085C205.564 440.259 201.773 449.038 196.984 455.423C192.195 461.808 186.808 465 180.822 465ZM254.364 465C249.176 465 244.587 462.805 240.596 458.416C237.005 453.627 234.012 446.045 231.618 435.669C229.622 425.294 228.625 411.926 228.625 395.564V120.217C228.625 105.851 230.021 93.0811 232.815 81.9076C235.608 70.734 239.399 61.9548 244.188 55.57C248.977 49.1851 254.364 45.9926 260.35 45.9926C266.335 45.9926 271.723 49.1851 276.511 55.57C281.3 61.9548 285.091 70.734 287.884 81.9076C290.678 93.0811 292.074 105.851 292.074 120.217V195.04H278.906V142.963C278.906 131.39 277.309 121.813 274.117 114.231C271.324 106.649 266.735 102.858 260.35 102.858C253.965 102.858 249.176 106.649 245.984 114.231C243.19 121.813 241.794 131.39 241.794 142.963V368.03C241.794 379.602 243.19 389.18 245.984 396.762C249.176 404.344 253.965 408.135 260.35 408.135C264.739 408.135 268.131 406.339 270.526 402.747C273.319 399.156 275.314 394.367 276.511 388.382C278.108 381.997 278.906 375.213 278.906 368.03V294.404H254.962V242.926H292.074V465H278.906V433.874C277.309 440.259 275.314 445.845 272.92 450.634C270.526 455.024 267.732 458.615 264.54 461.409C261.746 463.803 258.354 465 254.364 465ZM302.709 45.9926H315.877L332.638 402.747H344.011L358.377 45.9926H390.7L405.066 402.747H416.439L433.2 45.9926H446.368L426.615 465H394.292L380.524 108.245H369.151L354.785 465H322.462L302.709 45.9926Z" fill="black"/>
</g>
<defs>
<clipPath id="clip0_311_2">
<rect width="512" height="512" fill="white"/>
</clipPath>
</defs>
</svg>
